<svg width="19" height="19" viewBox="0 0 19 19" fill="none" xmlns="http://www.w3.org/2000/svg">
<path fill-rule="evenodd" clip-rule="evenodd" d="M0.320129 0.34788C0.525374 0.143195 0.803592 0.0282259 1.09367 0.0282259C1.38375 0.0282259 1.66197 0.143195 1.86721 0.34788L9.48587 7.95522L17.1045 0.34788C17.2047 0.240493 17.3256 0.15436 17.4599 0.094621C17.5941 0.0348816 17.7391 0.00275949 17.8861 0.000170105C18.033 -0.00241928 18.179 0.0245771 18.3153 0.0795496C18.4516 0.134522 18.5754 0.216344 18.6794 0.320134C18.7833 0.423925 18.8653 0.547557 18.9203 0.683655C18.9754 0.819754 19.0024 0.965531 18.9998 1.11229C18.9972 1.25905 18.9651 1.40378 18.9052 1.53786C18.8454 1.67193 18.7592 1.7926 18.6516 1.89266L11.0329 9.5L18.6516 17.1073C18.7592 17.2074 18.8454 17.3281 18.9052 17.4621C18.9651 17.5962 18.9972 17.741 18.9998 17.8877C19.0024 18.0345 18.9754 18.1802 18.9203 18.3163C18.8653 18.4524 18.7833 18.5761 18.6794 18.6799C18.5754 18.7837 18.4516 18.8655 18.3153 18.9205C18.179 18.9754 18.033 19.0024 17.8861 18.9998C17.7391 18.9972 17.5941 18.9651 17.4599 18.9054C17.3256 18.8456 17.2047 18.7595 17.1045 18.6521L9.48587 11.0448L1.86721 18.6521C1.65971 18.8452 1.38525 18.9503 1.10167 18.9453C0.81808 18.9403 0.547508 18.8256 0.346952 18.6253C0.146397 18.4251 0.0315157 18.1549 0.0265122 17.8717C0.0215087 17.5886 0.126773 17.3145 0.320129 17.1073L7.93878 9.5L0.320129 1.89266C0.11514 1.68773 0 1.40992 0 1.12027C0 0.830624 0.11514 0.552819 0.320129 0.34788Z" fill="#E03030"/>
</svg>
